<svg xmlns="http://www.w3.org/2000/svg" width="664" xmlns:xlink="http://www.w3.org/1999/xlink" height="191" viewBox="0 0 664 191">
    <style type="text/css"><![CDATA[
.st3 {fill:#000000;font-family:Arial;font-size:12pt;font-weight:bold}
.st1 {fill:#191919;font-family:Arial;font-size:12pt;font-weight:bold}
.st2 {fill:#191919;font-family:Arial;font-size:12pt}
]]></style>
    <defs/>
    <g transform="translate(-222.83,-225.83)">
        <g id="shape1" transform="translate(402,227)">
            <path stroke="#4c85d9" stroke-width="2" fill="#ffffff" d="M128,74L128,0L0,0L0,74L128,74z" fill-rule="evenodd"/>
            <text class="st1">
                <tspan x="11" y="42">User Interface</tspan>
            </text>
        </g>
        <g id="shape2" transform="translate(224,342)">
            <path stroke="#ff0000" stroke-width="2" fill="#ffffff" d="M128,74L128,0L0,0L0,74L128,74z" fill-rule="evenodd"/>
            <text class="st2">
                <tspan x="17" y="42.5">Make System</tspan>
            </text>
        </g>
        <g id="shape3" transform="translate(402,342)">
            <path stroke="#ff0000" stroke-width="2" fill="#ffffff" d="M128,74L128,0L0,0L0,74L128,74z" fill-rule="evenodd"/>
            <text class="st2">
                <tspan x="32" y="33">Compiler </tspan>
                <tspan x="32" y="52">Toolchain</tspan>
            </text>
        </g>
        <g id="shape4" transform="translate(580,342)">
            <path stroke="#ff0000" stroke-width="2" fill="#ffffff" d="M128,74L128,0L0,0L0,74L128,74z" fill-rule="evenodd"/>
            <text class="st2">
                <tspan x="13" y="42.5">ELF Converter</tspan>
            </text>
        </g>
        <g id="shape5" transform="translate(758,342)">
            <path stroke="#00af54" stroke-width="2" fill="#ffffff" d="M128,74L128,0L0,0L0,74L128,74z" fill-rule="evenodd"/>
            <text class="st2">
                <tspan x="9" y="42.5">Program Burner</tspan>
            </text>
        </g>
        <g id="shape6" transform="translate(224,227)">
            <path stroke="#ff0000" stroke-width="2" fill="#ffffff" d="M128,74L128,0L0,0L0,74L128,74z" fill-rule="evenodd"/>
            <text class="st2">
                <tspan x="13" y="33">Project Setting </tspan>
                <tspan x="41" y="52">Parser</tspan>
            </text>
        </g>
        <g id="shape7" transform="translate(402,264)">
            <path stroke="#323232" stroke-width="2" fill="none" d="M0,0L-43.8,0"/>
            <path stroke-width="1" stroke="#323232" fill="#323232" stroke-linecap="round" d="M-50,0L-42.7,4.2C-43.4,3,-43.8,1.5,-43.8,0C-43.8,-1.5,-43.4,-3,-42.7,-4.2L-50,0"/>
        </g>
        <g id="shape8" transform="translate(288,301)">
            <path stroke="#323232" stroke-width="2" fill="none" d="M0,0L0,34.8"/>
            <path stroke-width="1" stroke="#323232" fill="#323232" stroke-linecap="round" d="M0,41L4.2,33.7C3,34.4,1.5,34.8,0,34.8C-1.5,34.8,-3,34.4,-4.2,33.7L0,41"/>
        </g>
        <g id="shape9" transform="translate(352,379)">
            <path stroke="#323232" stroke-width="2" fill="none" d="M0,0L43.8,0"/>
            <path stroke-width="1" stroke="#323232" fill="#323232" stroke-linecap="round" d="M50,0L42.7,-4.2C43.4,-3,43.8,-1.5,43.8,0C43.8,1.5,43.4,3,42.7,4.2L50,0"/>
        </g>
        <g id="shape10" transform="translate(530,379)">
            <path stroke="#323232" stroke-width="2" fill="none" d="M0,0L43.8,0"/>
            <path stroke-width="1" stroke="#323232" fill="#323232" stroke-linecap="round" d="M50,0L42.7,-4.2C43.4,-3,43.8,-1.5,43.8,0C43.8,1.5,43.4,3,42.7,4.2L50,0"/>
        </g>
        <g id="shape11" transform="translate(708,379)">
            <path stroke="#323232" stroke-width="2" fill="none" d="M0,0L43.8,0"/>
            <path stroke-width="1" stroke="#323232" fill="#323232" stroke-linecap="round" d="M50,0L42.7,-4.2C43.4,-3,43.8,-1.5,43.8,0C43.8,1.5,43.4,3,42.7,4.2L50,0"/>
        </g>
        <g transform="translate(816.67,227)">
            <path id="shape12" stroke="#008ccc" stroke-width="2" transform="translate(17.42,48.42)" fill="none" d="M0,25.6L0,4.1L4,0"/>
            <path id="shape13" stroke="#008ccc" stroke-width="2" transform="translate(21.16,46.48)" fill="none" d="M0,1.1C0,.5,.5,0,1.1,0C1.7,0,2.2,.5,2.2,1.1C2.2,1.7,1.7,2.2,1.1,2.2C.5,2.2,0,1.7,0,1.1z"/>
            <path id="shape14" stroke="#008ccc" stroke-width="2" transform="translate(19.2,35.31)" fill="none" d="M0,38.7L0,19.6L6.2,13.1L6.3,0"/>
            <path id="shape15" stroke="#008ccc" stroke-width="2" transform="translate(23.91,32.38)" fill="none" d="M0,1.6C0,.7,.7,0,1.6,0C2.5,0,3.2,.7,3.2,1.6C3.2,2.5,2.5,3.2,1.6,3.2C.7,3.2,0,2.5,0,1.6z"/>
            <path id="shape16" stroke="#008ccc" stroke-width="2" transform="translate(21.48,12.67)" fill="none" d="M0,61.3L0,46.6L7.8,38.5L7.9,21.4L0,13.3L0,0"/>
            <path id="shape17" stroke="#008ccc" stroke-width="2" transform="translate(20.36,10.61)" fill="none" d="M0,1.1C0,.5,.5,0,1.1,0C1.7,0,2.2,.5,2.2,1.1C2.2,1.7,1.7,2.2,1.1,2.2C.5,2.2,0,1.7,0,1.1z"/>
            <path id="shape18" stroke="#008ccc" stroke-width="2" transform="translate(25.67,2.24)" fill="none" d="M.2,71.8L0,60L5.6,54.2L5.7,0"/>
            <path id="shape19" stroke="#008ccc" stroke-width="2" transform="translate(33.14,12.2)" fill="none" d="M0,1.1C0,.5,.5,0,1.1,0C1.7,0,2.2,.5,2.2,1.1C2.2,1.7,1.7,2.2,1.1,2.2C.5,2.2,0,1.7,0,1.1z"/>
            <path id="shape20" stroke="#008ccc" stroke-width="2" transform="translate(31.47,14.19)" fill="none" d="M0,22.1L2.8,19.3L2.8,0"/>
            <path id="shape21" stroke="#008ccc" stroke-width="2" transform="translate(30.27,0)" fill="none" d="M0,1.1C0,.5,.5,0,1.1,0C1.7,0,2.2,.5,2.2,1.1C2.2,1.7,1.7,2.2,1.1,2.2C.5,2.2,0,1.7,0,1.1z"/>
            <path id="shape22" stroke="#008ccc" stroke-width="2" transform="translate(33.85,30.28)" fill="none" d="M0,43.7L0,11L10.4,0"/>
            <path id="shape23" stroke="#008ccc" stroke-width="2" transform="translate(44.04,27.79)" fill="none" d="M0,1.4C0,.6,.6,0,1.4,0C2.2,0,2.8,.6,2.8,1.4C2.8,2.2,2.2,2.8,1.4,2.8C.6,2.8,0,2.2,0,1.4z"/>
            <path id="shape24" stroke="#008ccc" stroke-width="2" transform="translate(36.89,38.92)" fill="none" d="M0,35.1L0,5L4.7,0"/>
            <path id="shape25" stroke="#008ccc" stroke-width="2" transform="translate(41.12,37.15)" fill="none" d="M0,1.1C0,.5,.5,0,1.1,0C1.7,0,2.2,.5,2.2,1.1C2.2,1.7,1.7,2.2,1.1,2.2C.5,2.2,0,1.7,0,1.1z"/>
            <path id="shape26" stroke="#008ccc" stroke-width="2" transform="translate(40.46,47.87)" fill="none" d="M0,26.1L0,0"/>
            <path id="shape27" stroke="#008ccc" stroke-width="2" transform="translate(38.47,44.19)" fill="none" d="M0,1.8C0,.8,.8,0,1.9,0C2.9,0,3.7,.8,3.7,1.8C3.7,2.9,2.9,3.7,1.9,3.7C.8,3.7,0,2.9,0,1.8z"/>
            <path id="shape28" stroke="#008ccc" stroke-width="2" transform="translate(67.09,31.86)" fill="none" d="M0,1.1C0,.5,.5,0,1.1,0C1.7,0,2.2,.5,2.2,1.1C2.2,1.7,1.7,2.2,1.1,2.2C.5,2.2,0,1.7,0,1.1z"/>
            <path id="shape29" stroke="#008ccc" stroke-width="2" transform="translate(42.75,34.39)" fill="none" d="M0,39.6L0,34.5L25.6,8.9L25.6,0"/>
            <path id="shape30" stroke="#008ccc" stroke-width="2" transform="translate(54.66,65.76)" fill="none" d="M0,8.1L0,0"/>
            <path id="shape31" stroke="#008ccc" stroke-width="2" transform="translate(53.56,63.22)" fill="none" d="M0,1.1C0,.5,.5,0,1.1,0C1.7,0,2.2,.5,2.2,1.1C2.2,1.7,1.7,2.2,1.1,2.2C.5,2.2,0,1.7,0,1.1z"/>
            <path id="shape32" stroke="#008ccc" stroke-width="2" transform="translate(56.32,37.31)" fill="none" d="M0,17.9L0,12.4L7.8,4.6L7.8,0"/>
            <path id="shape33" stroke="#008ccc" stroke-width="2" transform="translate(63.03,34.87)" fill="none" d="M0,1.1C0,.5,.5,0,1.1,0C1.7,0,2.2,.5,2.2,1.1C2.2,1.7,1.7,2.2,1.1,2.2C.5,2.2,0,1.7,0,1.1z"/>
            <path id="shape34" stroke="#008ccc" stroke-width="2" transform="translate(9.19,39.26)" fill="none" d="M6.4,34.6L6.4,6.4L0,0"/>
            <path id="shape35" stroke="#008ccc" stroke-width="2" transform="translate(6.44,36.4)" fill="none" d="M0,1.6C0,.7,.7,0,1.6,0C2.5,0,3.2,.7,3.2,1.6C3.2,2.5,2.5,3.2,1.6,3.2C.7,3.2,0,2.5,0,1.6z"/>
            <path id="shape36" stroke="#008ccc" stroke-width="2" transform="translate(1.12,38.42)" fill="none" d="M12.8,35.5L12.8,20.5L0,7.8L0,0"/>
            <path id="shape37" stroke="#008ccc" stroke-width="2" transform="translate(0,36.28)" fill="none" d="M0,1.1C0,.5,.5,0,1.1,0C1.7,0,2.2,.5,2.2,1.1C2.2,1.7,1.7,2.2,1.1,2.2C.5,2.2,0,1.7,0,1.1z"/>
        </g>
        <g id="shape38" transform="translate(758,227)">
            <path stroke="#000000" stroke-width="2" fill-opacity="0.11" fill="#000000" d="M128,74L128,0L0,0L0,74L128,74z" fill-rule="evenodd"/>
            <text class="st3">
                <tspan x="23" y="32">Embedded </tspan>
                <tspan x="36" y="52">System</tspan>
            </text>
        </g>
        <g id="shape39" transform="translate(822,342)">
            <path stroke="#323232" stroke-width="2" fill="none" d="M0,0L0,-34.8"/>
            <path stroke-width="1" stroke="#323232" fill="#323232" stroke-linecap="round" d="M0,-41L-4.2,-33.7C-3,-34.4,-1.5,-34.8,0,-34.8C1.5,-34.8,3,-34.4,4.2,-33.7L0,-41"/>
        </g>
        <g id="shape40" transform="translate(580,227)">
            <path stroke="#00af54" stroke-width="2" fill="#ffffff" d="M128,74L128,0L0,0L0,74L128,74z" fill-rule="evenodd"/>
            <text class="st2">
                <tspan x="27" y="33">Serial Port </tspan>
                <tspan x="35" y="52">Interface</tspan>
            </text>
        </g>
        <g id="shape41" transform="translate(758,264)">
            <path stroke="#323232" stroke-width="2" fill="none" d="M-6.2,0L-43.8,0"/>
            <path stroke-width="1" stroke="#323232" fill="#323232" stroke-linecap="round" d="M0,0L-7.3,-4.2C-6.6,-3,-6.2,-1.5,-6.2,0C-6.2,1.5,-6.6,3,-7.3,4.2L0,0"/>
            <path stroke-width="1" stroke="#323232" fill="#323232" stroke-linecap="round" d="M-50,0L-42.7,4.2C-43.4,3,-43.8,1.5,-43.8,0C-43.8,-1.5,-43.4,-3,-42.7,-4.2L-50,0"/>
        </g>
        <g id="shape42" transform="translate(580,264)">
            <path stroke="#323232" stroke-width="2" fill="none" d="M-6.2,0L-43.8,0"/>
            <path stroke-width="1" stroke="#323232" fill="#323232" stroke-linecap="round" d="M0,0L-7.3,-4.2C-6.6,-3,-6.2,-1.5,-6.2,0C-6.2,1.5,-6.6,3,-7.3,4.2L0,0"/>
            <path stroke-width="1" stroke="#323232" fill="#323232" stroke-linecap="round" d="M-50,0L-42.7,4.2C-43.4,3,-43.8,1.5,-43.8,0C-43.8,-1.5,-43.4,-3,-42.7,-4.2L-50,0"/>
        </g>
        <path id="shape43" stroke="#000000" transform="translate(500,274)" fill="#00af54" d="M0,0L0,14.1L2.7,10.4L6.7,17.2L9.3,18L9.3,15.9L5.5,9.7L10,9.7L0,0z" fill-rule="evenodd"/>
    </g>
</svg>
